Coordinates
version=1
nRows=38
nColumns=12
inDegrees=yes

Units are S.I. units (second, meters, Newtons, ...)
Angles are in degrees

endheader
time	SC_y	SC_z	SC_x	AC_y	AC_z	AC_x	GH_y	GH_z	GH_yy	EL_x	PS_y
       0.0               -37.1          34.29           67.4          60.91         -16.83         -7.416          174.3          73.88         -32.69          39.92          90.36
 0.0009293               -37.1          34.29          67.39          60.91         -16.83         -7.415          174.3          73.88         -32.66          39.93          90.37
  0.001859               -37.1          34.28          67.38           60.9         -16.83         -7.414          174.3          73.88         -32.63          39.93          90.37
  0.002788               -37.1          34.28          67.37           60.9         -16.82         -7.413          174.3          73.88          -32.6          39.94          90.38
  0.003717               -37.1          34.27          67.36          60.89         -16.82         -7.412          174.3          73.88         -32.57          39.95          90.39
  0.004647              -37.09          34.27          67.35          60.89         -16.81         -7.411          174.3          73.89         -32.53          39.96          90.39
  0.005576              -37.09          34.26          67.34          60.88         -16.81         -7.409          174.2          73.89         -32.49          39.97           90.4
  0.006505              -37.09          34.25          67.33          60.88          -16.8         -7.408          174.2          73.89         -32.45          39.97          90.41
  0.007435              -37.09          34.25          67.31          60.87          -16.8         -7.406          174.2          73.89          -32.4          39.98          90.42
  0.008364              -37.09          34.24           67.3          60.86         -16.79         -7.405          174.2           73.9         -32.35           40.0          90.42
  0.009293              -37.09          34.23          67.29          60.86         -16.79         -7.403          174.2           73.9          -32.3          40.01          90.43
   0.01022              -37.09          34.22          67.27          60.85         -16.78         -7.401          174.1           73.9         -32.24          40.02          90.44
   0.01115              -37.08          34.21          67.25          60.84         -16.77         -7.399          174.1          73.91         -32.18          40.03          90.45
   0.01208              -37.08           34.2          67.24          60.83         -16.76         -7.397          174.1          73.91         -32.12          40.05          90.47
   0.01301              -37.08          34.19          67.22          60.82         -16.76         -7.394          174.0          73.91         -32.05          40.06          90.48
   0.01394              -37.08          34.18          67.19          60.81         -16.75         -7.392          174.0          73.92         -31.97          40.08          90.49
   0.01487              -37.08          34.17          67.17           60.8         -16.74         -7.389          174.0          73.92         -31.89           40.1          90.51
    0.0158              -37.07          34.15          67.15          60.79         -16.73         -7.386          173.9          73.93         -31.79          40.12          90.52
   0.01673              -37.07          34.14          67.12          60.78         -16.71         -7.382          173.9          73.93          -31.7          40.14          90.54
   0.01766              -37.07          34.12          67.09          60.76          -16.7         -7.379          173.8          73.94         -31.59          40.17          90.56
   0.01859              -37.06           34.1          67.05          60.75         -16.69         -7.375          173.7          73.95         -31.47          40.19          90.58
   0.01952              -37.06          34.08          67.02          60.73         -16.67          -7.37          173.7          73.96         -31.33          40.22          90.61
   0.02045              -37.05          34.06          66.98          60.71         -16.65         -7.365          173.6          73.96         -31.19          40.25          90.63
   0.02137              -37.05          34.03          66.93          60.69         -16.63          -7.36          173.5          73.97         -31.03          40.29          90.66
    0.0223              -37.04           34.0          66.88          60.66         -16.61         -7.354          173.5          73.98         -30.85          40.33          90.69
   0.02323              -37.04          33.97          66.83          60.64         -16.59         -7.347          173.4           74.0         -30.65          40.37          90.73
   0.02416              -37.03          33.94          66.76          60.61         -16.56         -7.339          173.2          74.01         -30.43          40.42          90.77
   0.02509              -37.02           33.9          66.69          60.57         -16.53         -7.331          173.1          74.02         -30.17          40.48          90.82
   0.02602              -37.02          33.85          66.62          60.54         -16.49         -7.321          173.0          74.04         -29.89          40.54          90.87
   0.02695              -37.01           33.8          66.53          60.49         -16.45          -7.31          172.8          74.06         -29.57          40.61          90.92
   0.02788              -36.99          33.74          66.42          60.44         -16.41         -7.298          172.7          74.08          -29.2           40.7          90.99
   0.02881              -36.98          33.68          66.31          60.39         -16.36         -7.283          172.4          74.11         -28.77          40.79          91.07
   0.02974              -36.97           33.6          66.17          60.32          -16.3         -7.267          172.2          74.14         -28.29           40.9          91.15
   0.03067              -36.95          33.51          66.01          60.25         -16.23         -7.247          171.9          74.17         -27.72          41.02          91.26
    0.0316              -36.93          33.41          65.83          60.16         -16.15         -7.225          171.6          74.21         -27.05          41.17          91.37
   0.03253              -36.91          33.28          65.61          60.05         -16.05         -7.198          171.2          74.25         -26.27          41.35          91.52
   0.03346              -36.88          33.14          65.35          59.93         -15.94         -7.166          170.8          74.31         -25.34          41.55          91.68
   0.03439              -36.84          32.96          65.04          59.78          -15.8         -7.129          170.2          74.37         -24.23           41.8          91.88
